 http://img718.imageshack.us/img718/386/thechroniclesofnarniathe.jpg

Country.......: USA, United Kingdom
Genre.........: Fantasy, Family, Adventure
Date release..: 07.12.2005 [World]
Director......: Andrew Adamson
Writers.......: Andrew Adamson, Christopher Markus
Duration......: 137 min.
More..........: http://www.imdb.com/title/tt0363771
Trailer.......: http://www.imdb.com/video/screenplay/vi2682650905
Trailer.......:

Pilot :
Four kids travel through a wardrobe to the land of Narnia and learn of their destiny to free it with the guidance of a mystical lion. 

Cats :
Georgie Henley   	 ...  	Lucy Pevensie
Skandar Keynes 	... 	Edmund Pevensie
William Moseley 	... 	Peter Pevensie
Anna Popplewell 	... 	Susan Pevensie
Tilda Swinton 	... 	White Witch
James McAvoy 	... 	Mr. Tumnus
Jim Broadbent 	... 	Professor Kirke
Kiran Shah 	... 	Ginarrbrik
James Cosmo 	... 	Father Christmas
Judy McIntosh 	... 	Mrs. Pevensie
Elizabeth Hawthorne 	... 	Mrs. Macready
Patrick Kake 	... 	Oreius
Shane Rangi 	... 	General Otmin
Brandon Cook 	... 	Boy on Train
Cassie Cook 	... 	Girl on Train 

Data Technical :
!!! SAMPLE !!!
Audio.....: Dubbing Polish
Subtitles.: None
Format                           : AVI
Format/Info                      : Audio Video Interleave
File size                        : 699 MiB
Duration                         : 2h 17mn
Overall bit rate                 : 713 Kbps
Writing application              : VirtualDubMod 1.5.4.1 (build 2178/release)
Writing library                  : VirtualDubMod build 2178/release
Video
ID                               : 0
Format                           : MPEG-4 Visual
Format profile                   : Advanced Simple@L5
Format settings, BVOP            : Yes
Format settings, QPel            : No
Format settings, GMC             : No warppoints
Format settings, Matrix          : Default (H.263)
Muxing mode                      : Packed bitstream
Codec ID                         : XVID
Codec ID/Hint                    : XviD
Duration                         : 2h 17mn
Bit rate                         : 596 Kbps
Width                            : 576 pixels
Height                           : 256 pixels
Display aspect ratio             : 2.25:1
Frame rate                       : 25.000 fps
Color space                      : YUV
Chroma subsampling               : 4:2:0
Bit depth                        : 8 bits
Scan type                        : Progressive
Bits/(Pixel*Frame)               : 0.162
Stream size                      : 585 MiB (84%)
Writing library                  : XviD 1.1.0 (UTC 2005-11-22)
Audio
ID                               : 1
Format                           : MPEG Audio
Format version                   : Version 1
Format profile                   : Layer 3
Mode                             : Joint stereo
Mode extension                   : MS Stereo
Codec ID                         : 55
Codec ID/Hint                    : MP3
Duration                         : 2h 17mn
Bit rate mode                    : Variable
Bit rate                         : 104 Kbps
Nominal bit rate                 : 112 Kbps
Channel(s)                       : 2 channels
Sampling rate                    : 44.1 KHz
Stream size                      : 102 MiB (15%)
Alignment                        : Aligned on interleaves
Interleave, duration             : 26 ms (0.65 video frame)
Interleave, preload duration     : 183 ms
Writing library                  : LAME3.97b
Encoding settings                : -m j -V 4 -q 2 -lowpass 15.6 --abr 112

Screen : 
http://img831.imageshack.us/img831/839/thechroniclesofnarniathv.jpg 
http://img546.imageshack.us/img546/2205/thechroniclesofnarniatho.jpg 
http://img31.imageshack.us/img31/2205/thechroniclesofnarniatho.jpg 
http://img88.imageshack.us/img88/3583/thechroniclesofnarniathm.jpg 
http://img862.imageshack.us/img862/9053/thechroniclesofnarniathx.jpg